<svg viewBox="0 0 24 24" xmlns="http://www.w3.org/2000/svg">
  <path d="M6.709 10.901h-1.5v-4.5h-1.5v-1.5h3v6Zm7.471-1.5h-3v-1h2c.55 0 1-.45 1-1v-1.5c0-.55-.45-1-1-1h-3.5v1.5h3v1h-2c-.55 0-1 .45-1 1v2.5h4.5v-1.5Zm6 .5v-4c0-.55-.45-1-1-1h-3.5v1.5h3v1h-2v1h2v1h-3v1.5h3.5c.55 0 1-.45 1-1Z"/>
  <circle cx="8.214" cy="10.196" r=".688"/>
  <path d="M6.82 19.099h-1.5v-4.5h-1.5v-1.5h3v6Zm7.471-1.5h-3v-1h2c.55 0 1-.45 1-1v-1.5c0-.55-.45-1-1-1h-3.5v1.5h3v1h-2c-.55 0-1 .45-1 1v2.5h4.5v-1.5Zm6 .5v-4c0-.55-.45-1-1-1h-3.5v1.5h3v1h-2v1h2v1h-3v1.5h3.5c.55 0 1-.45 1-1Z" />
  <circle cx="8.325" cy="18.394" r=".688"/>
</svg>
