<svg xmlns="http://www.w3.org/2000/svg" height="24" viewBox="0 -960 960 960" width="24"><path d="M400-400v-104.616l357.769-357.769q6.615-6.615 13.923-9.154 7.308-2.538 15.385-2.538 7.538 0 14.731 2.538Q809-869 814.846-863.154L859.308-820q6.385 6.615 9.692 14.577 3.308 7.961 3.308 16.038t-2.423 15.27q-2.423 7.192-9.039 13.808L500.769-400H400Zm378.615-334.154 53.924-54.461-44.462-46.77-55.462 55.231 46 46ZM224.615-160Q197-160 178.5-178.5 160-197 160-224.615v-510.77Q160-763 178.5-781.5 197-800 224.615-800h335.462L304.615-544.539v239.924h235.847L800-564.154v339.539Q800-197 781.5-178.5 763-160 735.385-160h-510.77Z"/></svg>
