<svg viewBox="0 0 152 152" xmlns="http://www.w3.org/2000/svg" xml:space="preserve" fill-rule="evenodd" clip-rule="evenodd"
     stroke-linejoin="round" stroke-miterlimit="2">
  <g fill-rule="nonzero">
    <path d="m33 127.8 14.31-91.37L97.96 24l10.31 78.86L33 127.8Z" fill="#e3e3ff"/>
    <path d="m127.68 91.5-21.5-5.02-70.44 23.28-11.79-3.32 14.27-64.26 8.12.99 45.89-10.62 6.09-5 11.74-2.08L97.96 24 47.31 36.43l-19.09-2.66L0 116.84l33 10.96 75.27-24.94 43.43 10.99-26-78.94-7.68 5.43 9.66 51.16Z" fill="#6236ff"/>
    <path d="m64.53 71.2-13.4-11.45-7.8 1.33 21.48 34.47 30.97-43.24 4.95-6.74L129.67 27l-8.52-1.99-22.07 8.22-17.3 19.08L64.53 71.2Z" fill="#6236ff"/>
    <path d="M108.27 102.86h.01l-2.17-16.36-70.33 23.24-2.84 18.04.06.02 75.27-24.94ZM46.34 43.17l45.89-10.62 6.07-4.99-.46-3.53-50.53 12.4-.01-.01-1.06 6.74.1.01Z" fill="#4d2ee8"/>
    <path d="m43.33 61.08.08.12.02-.14-.1.02Z" fill="#6236ff"/>
    <path d="m95.78 52.31 4.92-6.69-1.64-12.36-17.28 19.05L64.53 71.2l-13.4-11.45-7.7 1.31-.02.14 21.4 34.35 30.97-43.24Z" fill="#4d2ee8"/>
  </g>
</svg>
