<svg viewBox="0 0 100 100" xmlns="http://www.w3.org/2000/svg" width="24px" height="24px">
  <path d="M88.889 88.889H11.111V11.111H50V0H11.111C4.944 0 0 5 0 11.111v77.778C0 95 4.944 100 11.111 100h77.778C95 100 100 95 100 88.889V50H88.889v38.889ZM61.111 0v11.111h19.945L55.242 29.77c3.501 1.771 8.091 7.88 7.73 12.355l25.917-23.181v19.945H100V0H61.111Z"/>
  <path d="M36.111 29.167c-10.75 0-19.444 8.693-19.444 19.444 0 14.584 19.444 36.11 19.444 36.11s19.444-21.526 19.444-36.11c0-10.751-8.694-19.444-19.444-19.444Zm0 26.388c-3.834 0-6.944-3.111-6.944-6.944 0-3.834 3.11-6.944 6.944-6.944 3.833 0 6.944 3.11 6.944 6.944 0 3.833-3.111 6.944-6.944 6.944Z"/>
</svg>
