<svg xmlns="http://www.w3.org/2000/svg" height="24" viewBox="0 -960 960 960" width="24"><path d="M480.769-519.231q133.846 0 226.924-40.846 93.076-40.846 93.076-99.154t-93.076-99.154q-93.078-40.846-226.924-40.846t-227.308 40.846Q160-717.539 160-659.231t93.461 99.154q93.462 40.846 227.308 40.846ZM480-457.692q48.692 0 99.038-7.731 50.347-7.731 94.655-22.884 44.307-15.154 78-37.578 33.692-22.423 49.076-51.807v118.461q-15.384 29.385-49.076 51.808-33.693 22.423-78 37.577-44.308 15.154-94.655 22.885-50.346 7.73-99.038 7.73t-99.038-7.73q-50.347-7.731-94.27-22.885-43.923-15.154-77.615-37.577-33.693-22.423-49.077-51.808v-118.461q15.384 29.384 49.077 51.807 33.692 22.424 77.615 37.578 43.923 15.153 94.27 22.884 50.346 7.731 99.038 7.731Zm0 180q48.692 0 99.038-7.731 50.347-7.731 94.655-22.884 44.307-15.154 78-37.577 33.692-22.423 49.076-51.808V-280q-15.384 29.385-49.076 51.808-33.693 22.423-78 37.577-44.308 15.154-94.655 22.884Q528.692-160 480-160t-99.038-7.731q-50.347-7.73-94.27-22.884-43.923-15.154-77.615-37.577Q175.384-250.615 160-280v-117.692q15.384 29.385 49.077 51.808 33.692 22.423 77.615 37.577 43.923 15.153 94.27 22.884 50.346 7.731 99.038 7.731Z"/></svg>
